<svg width="24" height="25" viewBox="0 0 24 25" fill="none" xmlns="http://www.w3.org/2000/svg">
<g id="mail">
<path id="stroke" d="M14.6 20.268C13.8 20.568 12.9 20.668 12 20.668C7.6 20.668 4 17.068 4 12.668C4 8.26797 7.6 4.66797 12 4.66797C16.4 4.66797 20 8.26797 20 12.668C20 13.168 20 12.868 20 13.168C19.5 17.168 16.6388 17.3113 15.5 15.868C14.6148 14.7461 15.1 13.168 16.2 9.96797M13.0539 8.99953C14.7871 9.72191 15.4859 12.0018 14.6148 14.0918C13.7437 16.1818 11.6326 17.2905 9.89937 16.5681C8.16619 15.8458 7.46734 13.5659 8.33844 11.4758C9.20954 9.38584 11.3207 8.27715 13.0539 8.99953Z" stroke="#686A6C" stroke-width="1.5" stroke-miterlimit="10" stroke-linecap="round" stroke-linejoin="round"/>
</g>
</svg>
