<svg width="24" height="24" viewBox="0 0 24 24" fill="none" xmlns="http://www.w3.org/2000/svg">
<g id="moon.1 1">
<path id="Vector" fill-rule="evenodd" clip-rule="evenodd" d="M8.06567 6.02511C6.21318 7.28622 5 9.4111 5 11.8162C5 15.6822 8.13401 18.8162 12 18.8162C14.4051 18.8162 16.5299 17.603 17.7911 15.7505C12.6817 15.192 8.62421 11.1344 8.06567 6.02511ZM19 13.8162C19.866 13.8162 20.6118 14.5794 20.2691 15.3748C18.8898 18.5755 15.7066 20.8162 12 20.8162C7.02944 20.8162 3 16.7867 3 11.8162C3 8.1096 5.24067 4.92636 8.4414 3.54709C9.23674 3.20435 10 3.95014 10 4.81618C10 9.78675 14.0294 13.8162 19 13.8162Z" fill="#686A6C"/>
</g>
</svg>
