<svg width="24" height="24" viewBox="0 0 24 24" fill="none" xmlns="http://www.w3.org/2000/svg">
<g id="settings alt">
<path id="stroke" d="M12 15C13.6569 15 15 13.6569 15 12C15 10.3431 13.6569 9 12 9C10.3431 9 9 10.3431 9 12C9 13.6569 10.3431 15 12 15Z" stroke="#686A6C" stroke-width="1.5" stroke-linecap="round" stroke-linejoin="round"/>
<path id="stroke_2" d="M3.99835 7.47568C3.11226 9 3.40294 15.5 3.99835 16.5243C4.99841 18.2448 9.99844 21 11.9984 21C13.9983 21 19.1406 18 19.9984 16.5243C20.8562 15.0486 20.8561 8.95135 19.9984 7.47568C19.1406 5.99998 13.9984 3 11.9984 3C9.99827 3 4.88445 5.95135 3.99835 7.47568Z" stroke="#686A6C" stroke-width="1.5" stroke-linecap="round" stroke-linejoin="round"/>
</g>
</svg>
