<svg width="24" height="25" viewBox="0 0 24 25" fill="none" xmlns="http://www.w3.org/2000/svg">
<g id="twitter">
<path id="stroke" d="M19.1893 9.35232C19.1893 9.56583 19.1893 9.67258 19.1893 9.88608C19.1893 14.9034 15.4615 20.668 8.64497 20.668C6.6213 20.668 4.59763 20.1342 3 18.9599C3.31953 18.9599 3.63905 19.0667 3.85207 19.0667C5.55621 19.0667 7.15385 18.5329 8.43195 17.4654C6.83432 17.4654 5.4497 16.3979 4.91716 14.7966C5.4497 14.7966 6.08876 14.7966 6.6213 14.5831C4.91716 14.2629 3.63905 12.6616 3.63905 10.9536C4.1716 11.2738 4.70414 11.3806 5.3432 11.3806C3.74556 10.3131 3.21302 8.07131 4.1716 6.36328C6.08876 8.71181 8.85799 10.0996 11.8402 10.2063C11.5207 8.92532 11.9467 7.53755 12.9053 6.68354C14.3964 5.29577 16.7396 5.29577 18.1243 6.89704C18.9763 6.68354 19.7219 6.47004 20.4675 5.93628C20.1479 6.79029 19.6154 7.53755 18.8698 8.07131C19.6154 7.96455 20.3609 7.75105 21 7.4308C20.4675 8.17806 19.8284 8.81857 19.1893 9.35232Z" stroke="#686A6C" stroke-width="1.5" stroke-linecap="round" stroke-linejoin="round"/>
</g>
</svg>
